<?xml version="1.0" encoding="UTF-8"?>
<svg version="1.1" xmlns="http://www.w3.org/2000/svg" width="512" height="512">
<path d="M0 0 C0.91330078 -0.00287018 1.82660156 -0.00574036 2.76757812 -0.00869751 C4.69401674 -0.01073439 6.62047622 -0.00523085 8.546875 0.00732422 C11.49005524 0.02338324 14.4318623 0.0074628 17.375 -0.01171875 C19.25000302 -0.00973625 21.12500519 -0.00589244 23 0 C23.87720703 -0.00607269 24.75441406 -0.01214539 25.65820312 -0.0184021 C30.34593168 0.03537254 33.8587569 0.11367974 37.5 3.3984375 C38.89379883 6.18579102 38.89379883 6.18579102 39.95703125 9.52734375 C40.34697266 10.72681641 40.73691406 11.92628906 41.13867188 13.16210938 C41.7197168 15.0425293 41.7197168 15.0425293 42.3125 16.9609375 C42.72170797 18.23163594 43.13249953 19.50182557 43.54492188 20.77148438 C46.5 30.00424107 46.5 30.00424107 46.5 32.3984375 C47.66402344 32.63820312 48.82804688 32.87796875 50.02734375 33.125 C53.10714161 33.88295859 55.50787147 34.86413999 58.19140625 36.546875 C62.4717322 39.10002277 66.42781528 41.22942833 71.5 41.3984375 C77.99896332 39.4813747 83.58214941 35.83521377 89.28515625 32.26953125 C94.17945775 29.36229671 96.85990962 28.15727125 102.5 29.3984375 C105.56709292 31.34614174 107.96749842 33.80907588 110.5 36.3984375 C111.86717443 37.7311768 113.23436441 39.0639002 114.60189819 40.39627075 C116.56567326 42.32129116 118.50770574 44.26741297 120.44799805 46.21606445 C121.95572096 47.72922416 123.46881759 49.23686635 124.98242188 50.74414062 C125.94563392 51.70801224 126.9085364 52.67219334 127.87109375 53.63671875 C129.1693811 54.936698 129.1693811 54.936698 130.49389648 56.26293945 C133.20256031 59.14631325 133.97137783 61.19232538 133.91455078 65.18261719 C132.97474182 70.20600123 129.93339539 74.62843065 127.4375 79.0234375 C126.28770811 81.04992976 125.15039703 83.08356824 124.02734375 85.125 C123.51937256 86.01783691 123.01140137 86.91067383 122.48803711 87.83056641 C120.90300774 91.9499978 122.12188913 94.53749117 123.83984375 98.44921875 C124.36707031 99.52558594 124.89429688 100.60195312 125.4375 101.7109375 C127.75806723 106.6080578 129.45928862 111.09080945 130.5 116.3984375 C131.79292969 116.66269531 133.08585937 116.92695313 134.41796875 117.19921875 C140.18230075 118.47804941 145.64891482 120.4343613 151.18945312 122.45117188 C151.94806641 122.71607422 152.70667969 122.98097656 153.48828125 123.25390625 C154.16415283 123.49778076 154.84002441 123.74165527 155.53637695 123.99291992 C157.87805081 124.47651066 159.26168249 124.19829651 161.5 123.3984375 C163.45866217 121.88579209 163.45866217 121.88579209 165.1875 119.8984375 C165.78949219 119.269375 166.39148438 118.6403125 167.01171875 117.9921875 C170.66466394 111.62589982 169.47590481 103.92077909 168.46875 96.9375 C168.35398315 96.0662851 168.23921631 95.19507019 168.12097168 94.29745483 C167.63561015 90.6130034 167.12593935 86.93205708 166.61572266 83.25097656 C162.83820233 55.71857099 162.83820233 55.71857099 170.5 44.3984375 C173.91833786 40.14450595 177.67843487 36.28337683 181.5 32.3984375 C182.59030518 31.27163574 182.59030518 31.27163574 183.70263672 30.12207031 C186.14508064 27.5991941 188.60142815 25.09063854 191.0625 22.5859375 C192.23063232 21.38529663 192.23063232 21.38529663 193.42236328 20.16040039 C201.5223939 12.01711306 209.67385037 4.49031064 221.71704102 4.17675781 C223.29190848 4.18191736 224.86676829 4.19918625 226.44140625 4.2265625 C227.30351212 4.23455872 228.16561798 4.24255493 229.05384827 4.25079346 C231.86974883 4.28415323 234.684561 4.33772273 237.5 4.3984375 C238.46041199 4.41898193 239.42082397 4.43952637 240.41033936 4.46069336 C246.40498466 4.60035511 252.39586411 4.79700517 258.38745117 5.03320312 C260.44738024 5.11102963 262.50764018 5.18048412 264.56811523 5.2421875 C267.59716211 5.33327952 270.62437622 5.44896853 273.65234375 5.5703125 C275.02881325 5.60496613 275.02881325 5.60496613 276.43309021 5.64031982 C280.37898966 5.82350133 283.04351899 6.1710734 286.61547852 7.95019531 C288.6908216 10.64633995 289.60340835 12.64483174 289.3605957 16.09353638 C287.51211763 21.04424573 282.95971249 24.29693619 279.05500793 27.68061638 C277.31247041 29.20311093 275.6096553 30.760733 273.91345215 32.33460999 C269.09348947 36.8059488 264.26291808 41.2579282 259.28955078 45.55883789 C242.93306636 59.20346581 242.93306636 59.20346581 235.90625 78.44970703 C235.51727517 86.48574639 236.26462156 94.4615037 237.5 102.3984375 C258.10018715 105.56590697 258.10018715 105.56590697 277.14700127 99.0995121 C284.42616121 93.33596107 290.5626754 86.28957413 296.60467529 79.27862549 C299.79011033 75.62052805 303.09386899 72.06936088 306.39136219 68.51245022 C308.9509444 65.75069552 311.48484569 62.9766402 313.95573425 60.13502502 C314.41241486 59.62188751 314.86909546 59.10875 315.33961487 58.58006287 C316.56634971 57.20146433 317.77819309 55.80965461 318.98881531 54.41688538 C322.17958222 51.85220078 324.45093614 51.55181404 328.5 51.3984375 C331.375 52.6484375 331.375 52.6484375 333.5 55.3984375 C333.90649414 57.68212891 333.90649414 57.68212891 334.09765625 60.375 C334.16984375 61.36048828 334.24203125 62.34597656 334.31640625 63.36132812 C334.37699219 64.36357422 334.43757813 65.36582031 334.5 66.3984375 C334.55542969 67.29240234 334.61085938 68.18636719 334.66796875 69.10742188 C335.36186251 81.6066398 335.65756994 94.13768098 335.78610229 106.65496826 C335.80350105 108.09244719 335.82769333 109.52986228 335.85916138 110.96710205 C335.90159944 113.00573963 335.91675935 115.04300388 335.92578125 117.08203125 C335.94765503 118.83858032 335.94765503 118.83858032 335.9699707 120.63061523 C334.76089664 130.32393475 330.36874319 136.4264449 323.515625 143.109375 C322.35398834 144.27250717 322.35398834 144.27250717 321.16888428 145.45913696 C319.53871848 147.08464912 317.90122932 148.702847 316.25683594 150.31396484 C313.75344629 152.77005632 311.27788548 155.25182873 308.8046875 157.73828125 C307.20991223 159.3219041 305.61360813 160.90398916 304.015625 162.484375 C303.28200745 163.21981537 302.54838989 163.95525574 301.7925415 164.71298218 C293.3125572 172.96438148 285.98327849 175.6503103 274.25830078 175.55859375 C267.59848434 175.2747923 261.03171999 174.32590773 254.4375 173.3984375 C238.66706269 170.34316551 238.66706269 170.34316551 223.3671875 172.7890625 C218.98269861 176.77930579 214.77581037 180.91636126 210.625 185.1484375 C209.74585938 186.03660156 208.86671875 186.92476562 207.9609375 187.83984375 C205.80267481 190.02156582 203.64923832 192.20783096 201.5 194.3984375 C203.1396875 194.7696875 203.1396875 194.7696875 204.8125 195.1484375 C208.5 196.3984375 208.5 196.3984375 210.30078125 197.94140625 C211.7683705 200.94829107 212.36597988 203.89674147 213.08422852 207.15332031 C215.11026895 216.00507442 215.11026895 216.00507442 221.2734375 222.23828125 C225.9252178 224.51944789 230.74088434 226.51483769 236 226.29296875 C240.39958365 224.71874273 244.43583184 222.42928566 248.52929688 220.19335938 C255.87469144 216.34311938 255.87469144 216.34311938 260.5 217.3984375 C263.45952552 219.43842993 265.95084295 221.87379719 268.5 224.3984375 C269.2307373 225.10436035 269.96147461 225.8102832 270.71435547 226.53759766 C272.97649965 228.74182624 275.20997767 230.97176291 277.4375 233.2109375 C278.58702148 234.3546582 278.58702148 234.3546582 279.75976562 235.52148438 C280.48744141 236.25044922 281.21511719 236.97941406 281.96484375 237.73046875 C282.620896 238.38764893 283.27694824 239.0448291 283.95288086 239.72192383 C286.13235146 242.08367617 286.48146709 243.2339319 286.84765625 246.484375 C286.39986687 251.52577898 284.48752784 254.73423762 281.9375 259.0234375 C278.6155806 264.16946948 278.6155806 264.16946948 277.61328125 269.9921875 C277.90589844 270.78625 278.19851563 271.5803125 278.5 272.3984375 C278.72171875 273.48898437 278.9434375 274.57953125 279.171875 275.703125 C281.31727356 282.8865211 281.31727356 282.8865211 286.79248047 287.67822266 C292.15629441 289.85295372 297.68967014 291.35118733 303.3269043 292.63745117 C305.78909996 293.49967608 306.88958461 294.36460326 308.5 296.3984375 C309.66793932 299.90225547 309.68068143 303.08697639 309.703125 306.734375 C309.70882507 307.45074127 309.71452515 308.16710754 309.72039795 308.90518188 C309.72983536 310.41984587 309.73637693 311.93453027 309.74023438 313.44921875 C309.74993589 315.75817953 309.78096775 318.06624819 309.8125 320.375 C309.81903105 321.84895307 309.82428112 323.32291248 309.828125 324.796875 C309.8404718 325.48349213 309.8528186 326.17010925 309.86553955 326.87753296 C309.84548024 331.22629819 309.15095292 333.93453105 306.5 337.3984375 C304.44140625 338.62109375 304.44140625 338.62109375 302.0625 339.4609375 C301.18078125 339.79738281 300.2990625 340.13382812 299.390625 340.48046875 C296.5 341.3984375 296.5 341.3984375 293.421875 341.97265625 C287.60521547 343.20491365 287.60521547 343.20491365 283.27246094 347.06005859 C280.40437026 352.09977484 277.39742362 358.05957634 277.578125 363.94140625 C279.14179842 368.10899347 281.43710278 371.88046167 283.70507812 375.6953125 C286.1673094 380.05876033 287.49127342 383.28913108 286.5 388.3984375 C284.50147527 391.40548775 282.0556838 393.86048098 279.5 396.3984375 C278.79407715 397.12788574 278.0881543 397.85733398 277.36083984 398.60888672 C275.15785541 400.87367834 272.92740105 403.10769248 270.6875 405.3359375 C269.92501953 406.10228516 269.16253906 406.86863281 268.37695312 407.65820312 C267.64798828 408.38587891 266.91902344 409.11355469 266.16796875 409.86328125 C265.18219849 410.84735962 265.18219849 410.84735962 264.17651367 411.85131836 C262.03812134 413.82466803 260.83964733 414.35228695 257.94140625 414.74609375 C252.32803386 414.17902208 247.91849137 411.21111557 243.04492188 408.50976562 C238.69371303 406.08014279 238.69371303 406.08014279 233.87109375 405.51171875 C233.08863281 405.80433594 232.30617188 406.09695313 231.5 406.3984375 C230.40945313 406.62015625 229.31890625 406.841875 228.1953125 407.0703125 C221.0119164 409.21571106 221.0119164 409.21571106 216.22021484 414.69091797 C214.04548378 420.05473191 212.54725017 425.58810764 211.26098633 431.2253418 C210.33370606 433.87331153 209.88989874 434.88173639 207.5 436.3984375 C204.60564454 436.70902288 201.93089018 436.84261533 199.03515625 436.83203125 C198.20543808 436.8372731 197.37571991 436.84251495 196.52085876 436.84791565 C194.76660277 436.85433696 193.01230372 436.8529974 191.25805664 436.84448242 C188.575553 436.83597888 185.89518345 436.86471941 183.21289062 436.89648438 C181.50781314 436.89809667 179.80273188 436.89751831 178.09765625 436.89453125 C177.29650894 436.90576523 176.49536163 436.91699921 175.66993713 436.92857361 C172.14557518 436.88453829 169.95944418 436.73241932 167.0690918 434.63134766 C165.54608122 432.4640138 164.60739318 430.68753743 163.796875 428.17578125 C163.5390625 427.39009766 163.28125 426.60441406 163.015625 425.79492188 C162.76296875 424.98345703 162.5103125 424.17199219 162.25 423.3359375 C161.981875 422.52060547 161.71375 421.70527344 161.4375 420.86523438 C159.5 414.85008769 159.5 414.85008769 159.5 411.3984375 C158.85933594 411.21667969 158.21867187 411.03492188 157.55859375 410.84765625 C153.47164036 409.65994252 149.53021138 408.49327903 145.6875 406.6484375 C142.02785359 405.21328205 141.18522145 405.29544814 137.5 406.3984375 C134.11042557 408.01706231 130.82780713 409.84358999 127.55859375 411.69140625 C126.88183594 412.05105469 126.20507812 412.41070312 125.5078125 412.78125 C124.90598145 413.11527832 124.30415039 413.44930664 123.68408203 413.79345703 C120.28514608 414.73494633 117.90233049 414.26554966 114.5 413.3984375 C112.26342582 411.73226847 110.51420803 410.23454466 108.6015625 408.26171875 C107.82091934 407.48612862 107.82091934 407.48612862 107.02450562 406.69487 C105.93333831 405.60340503 104.84956866 404.50449918 103.77294922 403.39868164 C102.12781367 401.71381912 100.45527408 400.06033804 98.77734375 398.40820312 C97.7169878 397.34028851 96.65833342 396.27068111 95.6015625 395.19921875 C94.85478745 394.46291985 94.85478745 394.46291985 94.09292603 393.71174622 C90.9267044 390.4142052 89.63097254 387.98597406 89.5 383.3984375 C90.08911133 381.32788086 90.08911133 381.32788086 91.08203125 379.48828125 C91.61473633 378.46831055 91.61473633 378.46831055 92.15820312 377.42773438 C92.72958008 376.39229492 92.72958008 376.39229492 93.3125 375.3359375 C97.92891618 368.20944756 97.92891618 368.20944756 98.92578125 360.51171875 C98.37470703 359.62033203 98.37470703 359.62033203 97.8125 358.7109375 C95.23636617 354.14375786 93.8638805 349.44066237 92.5 344.3984375 C91.2625 344.1509375 90.025 343.9034375 88.75 343.6484375 C84.83993912 342.76851889 81.01405659 341.71600851 77.1875 340.5234375 C76.20136719 340.21664063 75.21523437 339.90984375 74.19921875 339.59375 C71.16189179 338.24871085 69.54541108 337.0101981 67.5 334.3984375 C67.11880948 332.74206113 66.77897523 331.07505961 66.5 329.3984375 C62.52950339 333.22001185 58.57960156 337.06134269 54.64697266 340.921875 C53.30797008 342.23080579 51.96361841 343.5342887 50.61376953 344.83203125 C48.66809362 346.70447508 46.74285213 348.59603033 44.8203125 350.4921875 C44.21816925 351.06336304 43.616026 351.63453857 42.99563599 352.22302246 C38.97898157 356.23642885 36.95657436 359.67927755 36.5 365.3984375 C36.55748937 368.57548141 36.94211166 371.65473471 37.3984375 374.796875 C37.51224762 375.67187653 37.62605774 376.54687805 37.74331665 377.44839478 C38.10653099 380.22548846 38.48947011 382.99936152 38.875 385.7734375 C39.25041139 388.54064515 39.621369 391.30831025 39.98526001 394.07705688 C40.21160396 395.79221655 40.44481215 397.50649089 40.68637085 399.21957397 C41.69991681 406.77437564 42.63105472 414.74295069 39.9375 422.0234375 C39.64746094 422.86132812 39.35742188 423.69921875 39.05859375 424.5625 C34.02284843 433.72528472 24.96098748 441.22186516 17.64892578 448.59960938 C16.29781944 449.96733971 14.95211012 451.34042225 13.61181641 452.71875 C11.65185256 454.73378246 9.67566039 456.73158296 7.6953125 458.7265625 C7.10751007 459.3370343 6.51970764 459.9475061 5.91409302 460.57647705 C-0.78854854 467.24603156 -8.35865685 470.32908959 -17.82958984 470.43603516 C-19.02793457 470.39526855 -20.2262793 470.35450195 -21.4609375 470.3125 C-22.45010666 470.28125282 -22.45010666 470.28125282 -23.45925903 470.24937439 C-25.5980945 470.18016416 -27.73649738 470.10222036 -29.875 470.0234375 C-31.35741084 469.97225436 -32.83983288 469.92139446 -34.32226562 469.87084961 C-37.30190327 469.76803421 -40.28135607 469.66112181 -43.26074219 469.55126953 C-47.07185992 469.41163389 -50.88339841 469.29183358 -54.6953125 469.17578125 C-56.7968991 469.10487752 -58.89846351 469.03331141 -61 468.9609375 C-61.94020996 468.93402832 -62.88041992 468.90711914 -63.84912109 468.87939453 C-75.33814945 468.44225509 -75.33814945 468.44225509 -80.5 466.3984375 C-82.9966852 462.6534097 -83.01147232 460.83343399 -82.5 456.3984375 C-80.56384277 453.84928894 -80.56384277 453.84928894 -77.81835938 451.46166992 C-77.07221123 450.79590942 -77.07221123 450.79590942 -76.31098938 450.11669922 C-75.23216149 449.15464605 -74.14653882 448.20017003 -73.05500793 447.25255394 C-70.71398768 445.20238691 -68.4385823 443.08480135 -66.15666962 440.96934223 C-61.91915882 437.04197594 -57.66395895 433.14327234 -53.28955078 429.3684082 C-36.84026259 415.58321538 -36.84026259 415.58321538 -29.90625 396.11572266 C-29.51625844 387.82556106 -30.267142 379.59280576 -31.5 371.3984375 C-51.60805093 368.23165271 -51.60805093 368.23165271 -70.13065529 374.77503967 C-77.50497256 380.71160712 -83.76653459 387.89991352 -89.94128418 395.0401001 C-94.24138908 399.96914512 -98.71597137 404.74269008 -103.16467094 409.53715515 C-104.69276733 411.20947758 -106.18084226 412.91077251 -107.6643219 414.62268066 C-114.08789021 421.89272768 -114.08789021 421.89272768 -117.80490112 423.22387695 C-121.01020737 423.40818495 -123.22381127 422.56297195 -125.94824219 420.93994141 C-128.15644076 417.32330403 -128.21111741 413.85982219 -128.328125 409.734375 C-128.36712921 408.87739517 -128.40613342 408.02041534 -128.44631958 407.13746643 C-128.56742236 404.34985643 -128.66004045 401.56221326 -128.75 398.7734375 C-128.82291751 396.86007627 -128.89665073 394.94674595 -128.97119141 393.03344727 C-129.14680268 388.33738024 -129.2941802 383.64099684 -129.42712402 378.94354248 C-129.49321233 376.63548862 -129.56617875 374.32778335 -129.64160156 372.02001953 C-129.74861586 368.45842196 -129.822677 364.89870678 -129.875 361.3359375 C-129.90110352 360.33546387 -129.92720703 359.33499023 -129.95410156 358.30419922 C-129.98936432 343.7784626 -120.74505485 334.43389187 -111.06561279 324.64523315 C-109.97380792 323.55111574 -108.88030028 322.45869503 -107.78515625 321.36791992 C-106.12605605 319.71199153 -104.4807843 318.04311989 -102.8359375 316.37304688 C-93.65541769 307.1347977 -85.30038054 299.16799755 -71.625 299.0234375 C-61.25631067 299.00419837 -50.97365837 300.56588866 -40.72119141 301.97509766 C-27.66664051 304.29081554 -27.66664051 304.29081554 -15.5 300.3984375 C-13.06884159 295.53612067 -17.41788674 287.72076346 -19.0904541 282.68093872 C-22.00712851 273.71682333 -22.00712851 273.71682333 -28.51953125 267.31640625 C-32.40520001 265.69666758 -36.3630071 265.08649385 -40.5 264.3984375 C-41.54671875 263.85316406 -42.5934375 263.30789063 -43.671875 262.74609375 C-47.04351111 261.13944395 -47.98255385 261.40828129 -51.5 262.3984375 C-53.2129342 263.18650208 -54.89761348 264.03789174 -56.5546875 264.9375 C-57.49957031 265.43507813 -58.44445312 265.93265625 -59.41796875 266.4453125 C-61.38650953 267.49589437 -63.35010965 268.55578764 -65.30859375 269.625 C-66.25605469 270.12 -67.20351562 270.615 -68.1796875 271.125 C-69.45948486 271.81456787 -69.45948486 271.81456787 -70.76513672 272.51806641 C-74.54464707 273.7347165 -76.67485927 273.4980784 -80.5 272.3984375 C-83.20475198 270.55210445 -85.44593856 268.34146549 -87.74609375 266.01953125 C-88.40207047 265.37403824 -89.05804718 264.72854523 -89.73390198 264.06349182 C-91.11195559 262.69824756 -92.48235815 261.32524218 -93.84545898 259.94506836 C-95.93136029 257.84212736 -98.05185971 255.77922728 -100.17773438 253.71679688 C-101.51528311 252.38247224 -102.85064697 251.0459531 -104.18359375 249.70703125 C-104.81784775 249.09524521 -105.45210175 248.48345917 -106.10557556 247.85313416 C-109.05801081 244.80486751 -110.8926001 242.6370391 -111.06323242 238.29174805 C-110.50835086 234.4561623 -109.74138071 232.1163151 -107.8046875 228.796875 C-107.25425781 227.81203125 -106.70382813 226.8271875 -106.13671875 225.8125 C-104.95688397 223.77721961 -103.7745684 221.74337541 -102.58984375 219.7109375 C-101.76806641 218.23753906 -101.76806641 218.23753906 -100.9296875 216.734375 C-100.41647949 215.85313965 -99.90327148 214.9719043 -99.37451172 214.06396484 C-98.20712535 210.50575032 -99.04350374 208.7807964 -100.5 205.3984375 C-100.974375 204.25246094 -101.44875 203.10648438 -101.9375 201.92578125 C-102.453125 200.74113281 -102.96875 199.55648437 -103.5 198.3359375 C-106.47656161 191.48240439 -106.47656161 191.48240439 -107.21508789 188.83666992 C-108.32172115 186.16668028 -108.32172115 186.16668028 -111.15795898 185.05224609 C-112.25954346 184.72047363 -113.36112793 184.38870117 -114.49609375 184.046875 C-116.29336914 183.48226562 -116.29336914 183.48226562 -118.12695312 182.90625 C-119.38443359 182.53242188 -120.64191406 182.15859375 -121.9375 181.7734375 C-124.41783824 181.0184965 -126.89583722 180.25581443 -129.37109375 179.484375 C-130.47380615 179.1548584 -131.57651855 178.8253418 -132.71264648 178.48583984 C-135.5313905 177.38619144 -136.66439837 176.73532493 -138.5 174.3984375 C-138.88768005 172.27355957 -138.88768005 172.27355957 -138.90405273 169.79101562 C-138.91673691 168.85994995 -138.92942108 167.92888428 -138.94248962 166.96960449 C-138.93955399 165.96643188 -138.93661835 164.96325928 -138.93359375 163.9296875 C-138.9388356 162.89783325 -138.94407745 161.865979 -138.94947815 160.80285645 C-138.95590318 158.62069601 -138.95455516 156.43850096 -138.94604492 154.25634766 C-138.93753237 150.91115916 -138.96629503 147.56767605 -138.99804688 144.22265625 C-138.99965883 142.10416718 -138.99908147 139.98567508 -138.99609375 137.8671875 C-139.00732773 136.86401489 -139.01856171 135.86084229 -139.03013611 134.82727051 C-139.01606468 133.430672 -139.01606468 133.430672 -139.00170898 132.00585938 C-139.00154282 131.18661987 -139.00137665 130.36738037 -139.00120544 129.52331543 C-138.5 127.3984375 -138.5 127.3984375 -136.63174438 125.67765808 C-134.13942699 124.18206427 -131.7248958 123.26872973 -128.96484375 122.35546875 C-127.38026367 121.82856445 -127.38026367 121.82856445 -125.76367188 121.29101562 C-124.66603516 120.93458984 -123.56839844 120.57816406 -122.4375 120.2109375 C-121.33599609 119.84291016 -120.23449219 119.47488281 -119.09960938 119.09570312 C-110.90772843 116.3984375 -110.90772843 116.3984375 -107.5 116.3984375 C-107.35304688 115.76679688 -107.20609375 115.13515625 -107.0546875 114.484375 C-106.83039063 113.58976562 -106.60609375 112.69515625 -106.375 111.7734375 C-106.12363281 110.75378906 -105.87226562 109.73414063 -105.61328125 108.68359375 C-104.5 105.3984375 -104.5 105.3984375 -102.54296875 102.39453125 C-100.27119035 98.74265868 -98.4475232 95.74020228 -98.5 91.3984375 C-100.60691535 84.75887443 -104.18665127 78.83677838 -107.6640625 72.83984375 C-111.77610334 65.40147818 -111.77610334 65.40147818 -110.5 60.3984375 C-108.51042957 57.38028742 -106.0580494 54.93996559 -103.5 52.3984375 C-102.63938965 51.51430176 -101.7787793 50.63016602 -100.89208984 49.71923828 C-98.50880428 47.27598466 -96.10099008 44.8586813 -93.68237305 42.45043945 C-92.16921334 40.94271654 -90.66157115 39.42961991 -89.15429688 37.91601562 C-88.19042526 36.95280358 -87.22624416 35.9899011 -86.26171875 35.02734375 C-85.39506592 34.16181885 -84.52841309 33.29629395 -83.63549805 32.40454102 C-80.51414332 29.47231605 -78.19318838 28.90654198 -73.88134766 28.953125 C-69.91971064 29.69395193 -66.94124725 31.93113189 -63.58178711 34.07348633 C-55.24196956 39.58993876 -55.24196956 39.58993876 -45.67773438 41.19775391 C-40.47335247 39.75135843 -35.98671247 37.23377501 -31.40576172 34.42431641 C-28.84127522 33.0438434 -26.38274772 32.6306968 -23.5 32.3984375 C-23.35304688 31.72941406 -23.20609375 31.06039062 -23.0546875 30.37109375 C-21.54896893 23.92419529 -19.71894182 17.61306803 -17.625 11.3359375 C-17.39280762 10.59802979 -17.16061523 9.86012207 -16.92138672 9.09985352 C-15.87260003 6.0497674 -14.98041905 3.80418817 -12.48779297 1.69897461 C-8.28791802 -0.12916184 -4.53417064 -0.03138897 0 0 Z M-36.9765625 109.1875 C-47.43950912 122.44989722 -54.39753711 139.21662883 -52.5 156.3984375 C-49.8911331 173.48752691 -43.11352869 189.19366439 -29.5 200.3984375 C-12.61595415 212.60568192 4.82852718 217.02465156 25.41796875 213.78125 C41.4013414 209.69962038 55.79787751 199.95875106 64.90234375 186.140625 C74.415701 169.81207539 77.40906591 154.01025876 73.5 135.3984375 C68.4417182 117.97984064 57.69002626 103.74395183 41.78100586 94.97949219 C15.08473441 81.08672172 -16.88177512 86.55709277 -36.9765625 109.1875 Z M151.125 283.3359375 C141.8961923 295.0494242 138.22515169 307.58505919 139.5 322.3984375 C141.28105487 334.99418594 147.46578324 346.46679086 157.5 354.3984375 C170.86402697 363.56656665 184.17237328 366.62536362 200.1328125 363.7421875 C213.74688816 360.00877668 223.7240036 350.93283215 231.5 339.3984375 C237.7086813 328.22664369 238.83226957 314.61103369 235.5 302.3984375 C231.53879819 289.43964872 222.67603384 279.83147106 211.5 272.3984375 C191.11176867 262.31035276 166.7241083 266.5368978 151.125 283.3359375 Z " fill="#1F3040" transform="translate(157.5,20.6015625)"/>
<path d="M0 0 C0.80735596 0.00128906 1.61471191 0.00257812 2.4465332 0.00390625 C3.75110474 0.02324219 3.75110474 0.02324219 5.08203125 0.04296875 C5.98590576 0.04941406 6.88978027 0.05585937 7.82104492 0.0625 C19.18599292 0.18589582 30.54253126 0.69924884 41.89453125 1.23046875 C37.41254113 6.60648104 32.66312543 11.58082119 27.6875 16.5 C26.53849968 17.64332039 26.53849968 17.64332039 25.36628723 18.80973816 C22.94062476 21.22326775 20.51173626 23.63350927 18.08203125 26.04296875 C14.86434406 29.23413394 11.64993318 32.42854686 8.4375 35.625 C7.69590134 36.35830032 6.95430267 37.09160065 6.19023132 37.84712219 C5.50894669 38.52510361 4.82766205 39.20308502 4.12573242 39.90161133 C3.52427902 40.49782791 2.92282562 41.09404449 2.30314636 41.70832825 C-2.30374187 46.68650228 -0.3005214 56.86004904 -0.10546875 63.23046875 C0.08414565 68.00729318 0.31326982 72.77970524 0.58724976 77.55239868 C0.66702079 78.96130749 0.74224671 80.37048109 0.81289673 81.77987671 C0.91557589 83.78372701 1.03943553 85.78645741 1.1640625 87.7890625 C1.23214111 88.95751709 1.30021973 90.12597168 1.37036133 91.32983398 C1.67744848 94.20721184 1.67744848 94.20721184 3.22802734 96.10107422 C6.08650386 98.03827205 9.36009001 97.82198899 12.70703125 97.91796875 C13.51438721 97.94632812 14.32174316 97.9746875 15.15356445 98.00390625 C16.99959761 98.06094231 18.84592292 98.10894633 20.69238281 98.14990234 C22.99433608 98.20781974 25.29581034 98.28609853 27.59667969 98.37744141 C30.92492986 98.50716162 34.25015167 98.60775081 37.57992554 98.67935181 C39.5491796 98.72963 41.51749471 98.81314569 43.4855957 98.8972168 C45.33350708 98.92295776 45.33350708 98.92295776 47.21875 98.94921875 C48.31276123 98.97951172 49.40677246 99.00980469 50.53393555 99.04101562 C55.5449501 97.83240187 58.29723425 94.79689764 61.89453125 91.23046875 C62.55518082 90.58937164 63.21583038 89.94827454 63.89649963 89.28775024 C65.97680761 87.24716322 68.02978202 85.18202558 70.078125 83.109375 C70.81909927 82.36461411 71.56007355 81.61985321 72.32350159 80.8525238 C74.66214566 78.50177512 76.99748157 76.1477832 79.33203125 73.79296875 C82.43206755 70.6664445 85.53533428 67.54317951 88.640625 64.421875 C89.35407578 63.70012589 90.06752655 62.97837677 90.80259705 62.23475647 C91.45740555 61.57664474 92.11221405 60.91853302 92.78686523 60.24047852 C93.36452133 59.6575856 93.94217743 59.07469269 94.53733826 58.47413635 C95.89453125 57.23046875 95.89453125 57.23046875 96.89453125 57.23046875 C97.96564312 65.8341966 98.14694502 74.37749363 98.18969727 83.03613281 C98.20130466 84.67293888 98.22189181 86.30970462 98.2512207 87.94628906 C98.2939154 90.33814623 98.31005523 92.72890296 98.3203125 95.12109375 C98.33782059 95.84621155 98.35532867 96.57132935 98.37336731 97.31842041 C98.33690469 105.89347531 92.7980671 110.63606669 87.1171875 116.30859375 C86.46882431 116.96124207 85.82046112 117.61389038 85.15245056 118.28631592 C83.78752653 119.65695626 82.42001039 121.02501969 81.05004883 122.390625 C78.95828451 124.47921739 76.88023017 126.58081951 74.80273438 128.68359375 C73.47086305 130.01773716 72.13820715 131.35109789 70.8046875 132.68359375 C70.18682877 133.31066223 69.56897003 133.93773071 68.93238831 134.58380127 C65.01192754 138.4626848 61.99686615 140.90796346 56.33935547 141.49609375 C47.1060002 141.44391869 38.08573043 140.23057673 28.96337891 138.93945312 C9.13239789 135.72482895 9.13239789 135.72482895 -9.10546875 142.23046875 C-18.7629272 150.11566798 -27.3907181 159.33856993 -36.20996094 168.1262207 C-37.92565294 169.83235886 -39.64151345 171.53832758 -41.35752869 173.24414062 C-46.47653394 178.3346529 -51.59125895 183.42945214 -56.70451677 188.52573636 C-58.15123203 189.96764197 -59.59803297 191.40946157 -61.04485035 192.85126472 C-70.05543916 201.83090156 -79.0638749 210.81269496 -88.06740952 219.7994051 C-90.1443564 221.87240353 -92.22133063 223.94537456 -94.29833984 226.01831055 C-95.0725329 226.79099107 -95.0725329 226.79099107 -95.86236623 227.57928129 C-104.23191592 235.93180716 -112.61345337 244.27219777 -120.99985346 252.60780118 C-129.63343244 261.18951902 -138.25556437 269.78260803 -146.86687398 278.38667268 C-151.69282077 283.20797175 -156.52362287 288.02417257 -161.36745453 292.82750893 C-165.92186042 297.34388023 -170.46070876 301.87550938 -174.98950386 306.41756439 C-176.64911976 308.07712647 -178.31383982 309.73160309 -179.98412132 311.38043022 C-194.1276348 324.62889673 -194.1276348 324.62889673 -200.76171875 342.32666016 C-200.71015625 343.52468262 -200.65859375 344.72270508 -200.60546875 345.95703125 C-200.58210449 346.62352692 -200.55874023 347.29002258 -200.53466797 347.97671509 C-200.19557689 355.56398897 -199.17434778 363.09282735 -198.10546875 370.60546875 C-194.70071636 394.91288722 -194.70071636 394.91288722 -199.10546875 402.23046875 C-201.32823307 404.87670476 -203.73946645 407.3088564 -206.1875 409.74609375 C-206.87929855 410.44313416 -207.57109711 411.14017456 -208.28385925 411.8583374 C-209.7434869 413.32436724 -211.20697629 414.78656114 -212.67407227 416.24511719 C-214.91241331 418.47493446 -217.13144233 420.72279058 -219.34960938 422.97265625 C-220.77360794 424.39826668 -222.19870211 425.82278375 -223.625 427.24609375 C-224.28458206 427.91690979 -224.94416412 428.58772583 -225.62373352 429.27886963 C-231.9008653 435.46261066 -237.04416882 436.52032387 -245.77734375 436.46875 C-257.237766 436.28423515 -268.68796911 435.17273825 -280.10546875 434.23046875 C-275.68715155 428.93564852 -271.02036291 424.02552356 -266.1171875 419.1796875 C-265.00148125 418.06966118 -265.00148125 418.06966118 -263.86323547 416.93721008 C-261.50890456 414.59500748 -259.15134619 412.25609639 -256.79296875 409.91796875 C-253.66903014 406.82055504 -250.54837096 403.71989134 -247.4296875 400.6171875 C-246.70996262 399.90576096 -245.99023773 399.19433441 -245.248703 398.46134949 C-244.25680717 397.47440849 -244.25680717 397.47440849 -243.24487305 396.4675293 C-242.66118454 395.88907761 -242.07749603 395.31062592 -241.47612 394.71464539 C-238.16522933 391.1295273 -238.95520739 386.88674718 -238.98046875 382.29296875 C-238.98771973 380.92700562 -238.98771973 380.92700562 -238.99511719 379.53344727 C-239.02104484 376.43224123 -239.06220739 373.33147995 -239.10546875 370.23046875 C-239.11803711 369.05194336 -239.13060547 367.87341797 -239.14355469 366.65917969 C-239.19112138 362.99460299 -239.26919085 359.33182125 -239.35546875 355.66796875 C-239.3694873 354.49693604 -239.38350586 353.32590332 -239.39794922 352.11938477 C-239.43033691 351.02037842 -239.46272461 349.92137207 -239.49609375 348.7890625 C-239.52751465 347.32424438 -239.52751465 347.32424438 -239.55957031 345.82983398 C-240.28229293 342.38849782 -241.22588106 341.24277733 -244.10546875 339.23046875 C-247.53747449 338.62306966 -247.53747449 338.62306966 -251.390625 338.64453125 C-257.00433488 338.48375464 -262.15140856 337.89172472 -267.6640625 336.69140625 C-277.88122912 335.02139812 -287.81002289 334.03716613 -296.83410645 340.04797363 C-310.57095131 350.82034849 -322.33916407 364.45399376 -333.65748596 377.6739502 C-334.13532028 378.18760132 -334.6131546 378.70125244 -335.10546875 379.23046875 C-335.43546875 379.23046875 -335.76546875 379.23046875 -336.10546875 379.23046875 C-336.46298399 373.63152469 -336.74401092 368.03411044 -336.96777344 362.42822266 C-337.06301998 360.21627375 -337.17408414 358.00497007 -337.29785156 355.79443359 C-337.48883785 352.2318047 -337.61472339 348.67125951 -337.73046875 345.10546875 C-337.8377832 343.41877075 -337.8377832 343.41877075 -337.94726562 341.69799805 C-338.08135503 335.59738329 -337.50409198 331.91866337 -333.40625 327.2734375 C-331.66122878 325.56971856 -329.89179338 323.89083064 -328.10546875 322.23046875 C-327.05114656 321.17079764 -326.00291311 320.1050433 -324.95996094 319.03417969 C-322.13978546 316.13920676 -319.29098691 313.27518299 -316.42797852 310.42260742 C-314.64284453 308.6429212 -312.86323163 306.8578352 -311.08398438 305.07226562 C-309.94693579 303.93587643 -308.8095778 302.79979672 -307.671875 301.6640625 C-307.1417128 301.13187607 -306.6115506 300.59968964 -306.06532288 300.05137634 C-300.99188365 295.01048549 -297.61173971 294.99630303 -290.7668457 294.97290039 C-278.97133134 295.10786607 -266.55612546 296.33812993 -255.10546875 299.23046875 C-245.7317409 300.1418034 -238.24284937 299.04433736 -230.10546875 294.23046875 C-228.08598345 292.55437536 -226.18661545 290.88351372 -224.292099 289.0789032 C-223.73693318 288.5579154 -223.18176737 288.0369276 -222.60977834 287.50015229 C-214.96995068 280.28243121 -207.55290997 272.83415938 -200.11938477 265.40551758 C-198.45253428 263.74330664 -196.78549076 262.08128927 -195.11827087 260.41944885 C-190.62867746 255.94285957 -186.14232011 251.46304165 -181.65699124 246.98217988 C-178.85002279 244.17815761 -176.04247478 241.37471687 -173.23475456 238.57144737 C-165.43903158 230.78788744 -157.64423496 223.00340244 -149.85289097 215.21545887 C-149.356863 214.71965047 -148.86083503 214.22384206 -148.34977591 213.71300916 C-147.85269281 213.21614434 -147.35560971 212.71927951 -146.84346348 212.20735818 C-145.83648047 211.20081861 -144.82949589 210.1942806 -143.82250977 209.18774414 C-143.32303064 208.68848644 -142.82355151 208.18922874 -142.30893665 207.67484202 C-134.19731867 199.5671808 -126.07895441 191.46631052 -117.95770455 183.36829845 C-109.59178356 175.02612043 -101.23152835 166.67829909 -92.87688774 158.32482356 C-88.19686287 153.6457127 -83.51431678 148.96917485 -78.82580757 144.298563 C-74.42210254 139.91134709 -70.02562626 135.51701364 -65.63454628 131.1171627 C-64.02551192 129.50735883 -62.41392454 127.90010197 -60.79956436 126.29563904 C-58.59046381 124.09928755 -56.39089538 121.89379631 -54.19337463 119.68586731 C-53.55825803 119.05880711 -52.92314142 118.43174691 -52.26877886 117.78568488 C-43.57566545 108.99647075 -38.74984076 100.79576976 -38.7265625 88.25024414 C-38.90290578 78.59845545 -40.36928142 69.00306492 -41.68212891 59.45166016 C-44.18966397 41.13092221 -44.18966397 41.13092221 -40.10546875 34.23046875 C-37.8630515 31.57973675 -35.42396083 29.15181323 -32.953125 26.71484375 C-31.90831215 25.66928314 -31.90831215 25.66928314 -30.84239197 24.6026001 C-29.37419014 23.13673075 -27.90231366 21.67453376 -26.42700195 20.21582031 C-24.17024988 17.98272596 -21.92717855 15.7365428 -19.68554688 13.48828125 C-18.25469764 12.06300716 -16.8230828 10.63850116 -15.390625 9.21484375 C-14.72072037 8.54402771 -14.05081573 7.87321167 -13.36061096 7.18206787 C-12.7299321 6.56092102 -12.09925323 5.93977417 -11.44946289 5.29980469 C-10.62364464 4.48089752 -10.62364464 4.48089752 -9.78114319 3.64544678 C-6.68394699 1.03010309 -4.02914619 -0.02365993 0 0 Z " fill="#5FB6FD" transform="translate(380.10546875,39.76953125)"/>
<path d="M0 0 C1.16781006 0.00523682 2.33562012 0.01047363 3.53881836 0.01586914 C4.79887695 0.0190918 6.05893555 0.02231445 7.35717773 0.02563477 C8.6976732 0.03399136 10.03816799 0.04245632 11.37866211 0.05102539 C12.72306153 0.05603879 14.06746271 0.06060197 15.41186523 0.06469727 C18.71334151 0.07653051 22.01473014 0.09301568 25.31616211 0.11352539 C25.68414917 1.35440918 25.68414917 1.35440918 26.05957031 2.62036133 C26.99943714 5.71144033 27.97825156 8.78659721 28.984375 11.85668945 C29.41000532 13.18244968 29.82018509 14.5132813 30.21386719 15.84887695 C32.40030134 23.88950194 32.40030134 23.88950194 37.83398438 29.77148438 C40.6440259 30.77860053 43.40378844 31.46952417 46.31616211 32.11352539 C47.78614131 32.68019257 49.24293201 33.28310424 50.67944336 33.92993164 C51.33879883 34.21932617 51.9981543 34.5087207 52.67749023 34.80688477 C53.32137695 35.09370117 53.96526367 35.38051758 54.62866211 35.67602539 C55.29188477 35.96670898 55.95510742 36.25739258 56.63842773 36.55688477 C57.29133789 36.84499023 57.94424805 37.1330957 58.61694336 37.42993164 C59.24552246 37.70724121 59.87410156 37.98455078 60.52172852 38.27026367 C62.19807937 39.05803453 63.8140723 39.9708199 65.42163086 40.89086914 C68.99254937 42.39923283 70.57682158 41.98176735 74.31616211 41.11352539 C77.04923165 40.01835404 77.04923165 40.01835404 79.71459961 38.60961914 C81.17446289 37.87001953 81.17446289 37.87001953 82.66381836 37.11547852 C83.6628418 36.59920898 84.66186523 36.08293945 85.69116211 35.55102539 C86.71338867 35.03088867 87.73561523 34.51075195 88.78881836 33.97485352 C91.30171407 32.69492065 93.81055603 31.40765408 96.31616211 30.11352539 C101.12309859 34.15978974 105.79899585 38.30805938 110.31616211 42.67602539 C111.21141602 43.50263672 111.21141602 43.50263672 112.12475586 44.34594727 C113.81616211 45.99243164 113.81616211 45.99243164 116.31616211 49.11352539 C116.01618439 52.72346383 114.7976179 55.4229509 113.03100586 58.54711914 C112.58305664 59.36116211 112.13510742 60.17520508 111.67358398 61.01391602 C110.72769889 62.70401882 109.777178 64.39153556 108.82202148 66.07641602 C105.34933038 72.22751758 105.34933038 72.22751758 105.31616211 79.11352539 C106.54463901 82.23560687 108.03241849 85.19424384 109.56616211 88.17602539 C112.95820354 94.93466794 115.47759049 101.08446685 116.87866211 108.54711914 C120.42278826 114.87454001 130.81557798 116.36761462 137.37866211 118.36352539 C138.24426758 118.63165039 139.10987305 118.89977539 140.00170898 119.17602539 C142.10506418 119.82678722 144.20981358 120.47253261 146.31616211 121.11352539 C145.95466808 126.21467881 143.18861466 128.80445016 139.71806335 132.21955872 C139.1279161 132.81594593 138.53776885 133.41233315 137.92973834 134.02679271 C135.94777502 136.02472372 133.95180372 138.00803754 131.95556641 139.99169922 C130.53252352 141.42016144 129.11033317 142.84947339 127.68893433 144.27957153 C123.8242278 148.16253474 119.94694912 152.03271305 116.06677604 155.90021348 C112.01206975 159.94480634 107.96711656 163.99913385 103.92060852 168.05192566 C97.12417813 174.85563643 90.3193495 181.65086214 83.50976562 188.44140625 C75.62979865 196.29959516 67.76435739 204.17210259 59.90629071 212.05218679 C53.16541813 218.8111917 46.41680604 225.56239462 39.66162425 232.30709857 C35.62422701 236.33825012 31.58960383 240.37207824 27.56192589 244.41294289 C23.77643009 248.20996521 19.98133723 251.99712239 16.17850876 255.77678299 C14.78183461 257.16815337 13.38858049 258.56296621 11.99896049 259.96138191 C10.10677983 261.86443495 8.20280641 263.75482705 6.29521179 265.64241028 C5.74335777 266.20318718 5.19150376 266.76396409 4.62292689 267.34173423 C0.77276358 271.11352539 0.77276358 271.11352539 -3.68383789 271.11352539 C-3.99836914 270.00235352 -4.31290039 268.89118164 -4.63696289 267.74633789 C-5.93983597 263.18781972 -7.30055066 258.64821135 -8.68383789 254.11352539 C-9.00610352 253.04102539 -9.32836914 251.96852539 -9.66040039 250.86352539 C-11.08131487 246.71198394 -11.81401478 244.65022476 -15.62133789 242.30102539 C-16.96978301 241.8861192 -18.32515728 241.49357591 -19.68383789 241.11352539 C-21.7531107 240.36106255 -23.81499687 239.58814157 -25.87133789 238.80102539 C-26.9915332 238.37821289 -28.11172852 237.95540039 -29.26586914 237.51977539 C-33.62586668 235.72594783 -37.71992633 233.54968439 -41.83227539 231.25024414 C-45.55636644 229.76570921 -47.67690382 229.57215866 -51.68383789 230.11352539 C-55.39498562 231.70943678 -58.86756618 233.67142848 -62.37133789 235.67602539 C-64.22317327 236.73002942 -66.08104056 237.77352553 -67.94555664 238.80493164 C-68.75984131 239.2710083 -69.57412598 239.73708496 -70.41308594 240.21728516 C-72.68383789 241.11352539 -72.68383789 241.11352539 -74.70947266 241.01000977 C-77.36584549 239.80385161 -78.9721485 238.16189384 -81.01196289 236.07836914 C-81.81118164 235.26948242 -82.61040039 234.4605957 -83.43383789 233.62719727 C-84.25883789 232.77706055 -85.08383789 231.92692383 -85.93383789 231.05102539 C-86.77430664 230.19702148 -87.61477539 229.34301758 -88.48071289 228.46313477 C-90.55531387 226.35317127 -92.62259621 224.23652831 -94.68383789 222.11352539 C-93.24742704 219.07134323 -91.80951235 216.02987416 -90.37133789 212.98852539 C-89.9672168 212.13258789 -89.5630957 211.27665039 -89.14672852 210.39477539 C-88.55214844 209.13793945 -88.55214844 209.13793945 -87.94555664 207.85571289 C-87.56061035 207.03296875 -87.17566406 206.21022461 -86.77905273 205.36254883 C-85.87732074 203.51084238 -84.86641183 201.71271526 -83.82836914 199.93383789 C-82.30541864 196.18103836 -82.69966406 194.0156883 -83.68383789 190.11352539 C-85.11080579 186.84274993 -85.11080579 186.84274993 -86.93383789 183.61352539 C-90.29372092 177.32598982 -92.43775006 171.05342717 -94.34790039 164.19555664 C-95.96395794 160.46728353 -97.1375242 159.94736298 -100.68383789 158.11352539 C-102.57674248 157.37914713 -104.49185268 156.70021575 -106.42211914 156.07055664 C-107.3841626 155.75320557 -108.34620605 155.43585449 -109.33740234 155.10888672 C-110.54485107 154.71854248 -111.7522998 154.32819824 -112.99633789 153.92602539 C-118.78165039 152.03883789 -118.78165039 152.03883789 -124.68383789 150.11352539 C-124.68383789 140.87352539 -124.68383789 131.63352539 -124.68383789 122.11352539 C-118.36906608 119.58761667 -112.09187566 117.11841839 -105.68383789 114.86352539 C-104.56041992 114.46133789 -104.56041992 114.46133789 -103.41430664 114.05102539 C-97.92801838 112.11352539 -97.92801838 112.11352539 -95.68383789 112.11352539 C-95.58329102 111.4909082 -95.48274414 110.86829102 -95.37915039 110.22680664 C-93.62599561 101.61713556 -90.0914558 94.32967312 -86.00073242 86.58935547 C-83.32297012 81.32361293 -81.81088273 78.00183355 -83.68383789 72.11352539 C-85.22265476 68.63400507 -86.9542396 65.28097143 -88.74633789 61.92602539 C-89.68208477 60.16559572 -90.61078714 58.40139865 -91.53149414 56.63305664 C-92.15036499 55.47447144 -92.15036499 55.47447144 -92.78173828 54.29248047 C-93.68383789 52.11352539 -93.68383789 52.11352539 -93.68383789 48.11352539 C-92.03149414 46.00708008 -92.03149414 46.00708008 -89.74633789 43.78540039 C-88.93422852 42.98618164 -88.12211914 42.18696289 -87.28540039 41.36352539 C-86.42688477 40.53852539 -85.56836914 39.71352539 -84.68383789 38.86352539 C-83.82532227 38.02305664 -82.96680664 37.18258789 -82.08227539 36.31665039 C-79.95813217 34.23971035 -77.82522952 32.17265316 -75.68383789 30.11352539 C-69.17502148 31.93852578 -63.56857753 35.37240395 -57.76000977 38.74438477 C-53.90438369 40.87067177 -51.46050079 42.11270353 -46.99243164 42.11743164 C-43.43515237 41.03806827 -40.44404506 39.64887694 -37.18383789 37.86352539 C-20.63920658 29.11352539 -20.63920658 29.11352539 -12.68383789 29.11352539 C-12.53688477 28.60047852 -12.38993164 28.08743164 -12.23852539 27.55883789 C-10.46820986 21.51534694 -8.5358724 15.52939814 -6.55883789 9.55102539 C-6.29312988 8.74101074 -6.02742188 7.93099609 -5.75366211 7.09643555 C-3.44063234 0.14553753 -3.44063234 0.14553753 0 0 Z M-37.16040039 93.90258789 C-47.62334701 107.16498511 -54.58137501 123.93171672 -52.68383789 141.11352539 C-50.07497099 158.2026148 -43.29736658 173.90875228 -29.68383789 185.11352539 C-12.79979204 197.32076981 4.64468929 201.73973945 25.23413086 198.49633789 C41.21750351 194.41470827 55.61403962 184.67383896 64.71850586 170.85571289 C74.23186311 154.52716328 77.22522802 138.72534665 73.31616211 120.11352539 C68.25788031 102.69492853 57.50618837 88.45903972 41.59716797 79.69458008 C14.90089652 65.80180961 -17.06561301 71.27218066 -37.16040039 93.90258789 Z " fill="#EEAF6D" transform="translate(157.683837890625,35.886474609375)"/>
<path d="M0 0 C2.59843612 5.58663765 4.33864323 11.28626894 6.03515625 17.20703125 C6.80568155 20.09732536 6.80568155 20.09732536 9 22 C11.53244983 23.01413895 14.05600653 23.96393547 16.625 24.875 C21.08608453 26.48579612 25.40330986 28.06891438 29.5625 30.375 C33.57053838 32.26970905 35.59957142 32.41197428 40 32 C42.87038193 30.89123569 45.50853785 29.44425899 48.1875 27.9375 C49.57073399 27.16477926 50.95990838 26.40257363 52.35546875 25.65234375 C52.96028076 25.31195068 53.56509277 24.97155762 54.18823242 24.62084961 C56.53917741 23.81523674 57.69809591 24.11833383 60 25 C62.0722219 26.67778518 63.92559221 28.32512937 65.8125 30.1875 C66.5849707 30.89229492 66.5849707 30.89229492 67.37304688 31.61132812 C69.85866716 34.05036382 70.98948646 35.39344933 71.05078125 38.9296875 C69.61407468 43.12764796 67.56894649 46.87999298 65.3515625 50.70117188 C62.89919535 55.23905616 62.72531623 58.04164859 64 63 C65.23538049 66.17124759 65.23538049 66.17124759 66.8125 69.25 C68.88619564 73.49031632 70.5028052 77.53313883 71.8125 82.0625 C72.82055565 84.88997316 73.43558092 86.54895768 75.7890625 88.4296875 C78.1647793 89.54411465 80.47343596 90.28691531 83 91 C84.14726562 91.36738281 85.29453125 91.73476563 86.4765625 92.11328125 C89.6386066 93.11562856 92.81821232 94.06220995 96 95 C96 101.93 96 108.86 96 116 C94.51886719 116.44730469 93.03773438 116.89460938 91.51171875 117.35546875 C89.57001021 117.96518399 87.62862017 118.57591419 85.6875 119.1875 C84.71103516 119.47947266 83.73457031 119.77144531 82.72851562 120.07226562 C77.29435819 121.7176768 77.29435819 121.7176768 73.01953125 125.23828125 C72.68308594 126.14964844 72.34664062 127.06101562 72 128 C71.76240967 128.59965576 71.52481934 129.19931152 71.2800293 129.81713867 C70.47935494 131.8653113 69.73428856 133.92716458 69 136 C66.36986301 143.42465753 66.36986301 143.42465753 64.3125 146.625 C62.57800969 149.76360151 62.50803326 151.44303694 63 155 C64.45433014 158.54316086 66.3710119 161.83153688 68.24414062 165.16601562 C70.97920446 170.26340008 70.97920446 170.26340008 71.07421875 173.62890625 C69.56349044 176.96349564 67.319938 179.33861211 64.75 181.875 C64.03263672 182.64070313 64.03263672 182.64070313 63.30078125 183.421875 C59.74547487 186.98681636 59.74547487 186.98681636 56.5703125 187.04296875 C52.67060642 185.46056522 49.0111024 183.49661904 45.34765625 181.43945312 C41.03070622 179.14814888 37.85407171 178.44953826 33 179 C30.06921363 180.118512 30.06921363 180.118512 27.3125 181.75 C22.15443516 184.51742521 17.12685688 186.37498015 11.49609375 187.9453125 C8.41129368 189.24874915 7.62054065 190.06626262 6 193 C4.80544868 196.04423881 3.79912709 199.13304792 2.8125 202.25 C1.884375 205.1375 0.95625 208.025 0 211 C-6.93 211 -13.86 211 -21 211 C-23.9375 201.6875 -23.9375 201.6875 -24.85913086 198.7644043 C-25.22083374 197.61838745 -25.22083374 197.61838745 -25.58984375 196.44921875 C-25.83597412 195.66893311 -26.08210449 194.88864746 -26.33569336 194.0847168 C-26.87715415 192.38551295 -27.43604313 190.69187061 -28 189 C-30.0587864 188.2165212 -30.0587864 188.2165212 -32.625 187.75 C-38.39657749 186.35608116 -43.37838299 184.08293122 -48.60791016 181.33691406 C-52.96059331 179.15061345 -56.16002061 178.36753315 -61 179 C-63.7127309 180.11752186 -66.17975768 181.54672033 -68.6875 183.0625 C-75.37156466 187.07028902 -75.37156466 187.07028902 -78.02563477 186.7734375 C-80.23608386 185.90751655 -81.37040294 184.97621436 -83.015625 183.27734375 C-83.54414063 182.73916016 -84.07265625 182.20097656 -84.6171875 181.64648438 C-85.15601563 181.08251953 -85.69484375 180.51855469 -86.25 179.9375 C-86.80429687 179.36966797 -87.35859375 178.80183594 -87.9296875 178.21679688 C-89.29334214 176.81787531 -90.64760417 175.40980886 -92 174 C-90.6961735 169.73408224 -89.01895617 166.02969312 -86.875 162.125 C-83.44173656 155.32644748 -83.44173656 155.32644748 -84 148 C-85.36859392 144.93878369 -86.88150908 141.99658451 -88.46875 139.04296875 C-90.58715747 134.83317432 -91.80303791 130.53812244 -93 126 C-93.33 125.01 -93.66 124.02 -94 123 C-95.92200175 122.1078268 -95.92200175 122.1078268 -98.3125 121.5625 C-104.29060227 119.93604092 -110.13103593 117.97922369 -116 116 C-117.36051323 103.59604582 -117.36051323 103.59604582 -114.42925835 98.00280952 C-112.09083374 95.14720891 -109.6199087 92.59150167 -106.96655273 90.02563477 C-105.99270389 89.03141273 -105.02206437 88.03403869 -104.05438232 87.03381348 C-101.43680275 84.34834074 -98.77458489 81.71192388 -96.09913516 79.0842526 C-93.29280267 76.31615986 -90.52354429 73.5113466 -87.74806213 70.71238708 C-83.08269829 66.01980768 -78.3867735 61.35957052 -73.67211914 56.71655273 C-68.23791009 51.36397224 -62.85986618 45.95947992 -57.50781101 40.52484852 C-52.89398319 35.84273189 -48.25128893 31.1907549 -43.58365589 26.56227344 C-40.80352033 23.80540714 -38.03423193 21.03968655 -35.29073906 18.24630928 C-32.70794535 15.61985276 -30.09056343 13.03341203 -27.44316101 10.47214508 C-26.02930415 9.0872604 -24.65168793 7.66567028 -23.27589417 6.2429657 C-15.74526314 -0.92173275 -9.97619022 -1.09422678 0 0 Z M-47.375 72.9375 C-56.6038077 84.6509867 -60.27484831 97.18662169 -59 112 C-57.21894513 124.59574844 -51.03421676 136.06835336 -41 144 C-27.63597303 153.16812915 -14.32762672 156.22692612 1.6328125 153.34375 C15.24688816 149.61033918 25.2240036 140.53439465 33 129 C39.2086813 117.82820619 40.33226957 104.21259619 37 92 C33.03879819 79.04121122 24.17603384 69.43303356 13 62 C-7.38823133 51.91191526 -31.7758917 56.1384603 -47.375 72.9375 Z " fill="#F86D84" transform="translate(356,231)"/>
<path d="M0 0 C1.72196552 1.33678902 3.43146386 2.68987278 5.125 4.0625 C5.83140625 4.60519531 6.5378125 5.14789063 7.265625 5.70703125 C21.12579868 16.92067571 30.86346273 35.10591847 32.91552734 52.76025391 C34.95278766 75.151122 31.2230391 95.42069647 17.125 113.5 C15.81247251 115.03882533 14.4804002 116.56129978 13.125 118.0625 C12.27808594 119.01382813 12.27808594 119.01382813 11.4140625 119.984375 C0.12868595 131.9585304 -18.35266129 142.33744691 -35.04125977 143.1706543 C-59.3649341 143.75404149 -80.49840917 139.46486129 -98.71801758 122.17236328 C-100.11434712 120.81328462 -101.49516297 119.43832004 -102.875 118.0625 C-103.87853516 117.09376953 -103.87853516 117.09376953 -104.90234375 116.10546875 C-120.3256536 100.05263605 -123.47683271 78.14967184 -123.21484375 56.91015625 C-122.54725695 36.61385558 -111.55888859 19.15739726 -97.1875 5.375 C-69.99704363 -18.22107255 -29.5460193 -21.01140575 0 0 Z M-93.3515625 22.8515625 C-103.81450912 36.11395972 -110.77253711 52.88069133 -108.875 70.0625 C-106.2661331 87.15158941 -99.48852869 102.85772689 -85.875 114.0625 C-68.99095415 126.26974442 -51.54647282 130.68871406 -30.95703125 127.4453125 C-14.9736586 123.36368288 -0.57712249 113.62281356 8.52734375 99.8046875 C18.040701 83.47613789 21.03406591 67.67432126 17.125 49.0625 C12.0667182 31.64390314 1.31502626 17.40801433 -14.59399414 8.64355469 C-41.29026559 -5.24921578 -73.25677512 0.22115527 -93.3515625 22.8515625 Z " fill="#20303F" transform="translate(213.875,106.9375)"/>
<path d="M0 0 C14.19289546 9.47951754 24.26961254 24.30694196 28 41 C28.27692677 44.81667906 28.27951924 48.61229875 28.25 52.4375 C28.26160156 53.93506836 28.26160156 53.93506836 28.2734375 55.46289062 C28.22950415 72.16854598 21.05601522 87.14155306 9.83984375 99.3515625 C-4.59673167 112.92351544 -21.66492505 117.67324456 -40.9921875 117.34375 C-57.39850985 116.58740782 -70.53956304 108.22084594 -82 97 C-82.55429687 96.48179687 -83.10859375 95.96359375 -83.6796875 95.4296875 C-95.56793476 83.15587547 -99.37371943 65.28341824 -99.2109375 48.875 C-98.41845456 34.31679486 -92.54624782 21.87211557 -83 11 C-82.41734375 10.32324219 -81.8346875 9.64648438 -81.234375 8.94921875 C-72.41015608 -0.59799289 -61.47220088 -5.89510611 -49 -9 C-48.36400879 -9.1757959 -47.72801758 -9.3515918 -47.07275391 -9.53271484 C-30.58265187 -13.25027142 -14.05027418 -8.44334007 0 0 Z M-72.375 20.9375 C-81.6038077 32.6509867 -85.27484831 45.18662169 -84 60 C-82.21894513 72.59574844 -76.03421676 84.06835336 -66 92 C-52.63597303 101.16812915 -39.32762672 104.22692612 -23.3671875 101.34375 C-9.75311184 97.61033918 0.2240036 88.53439465 8 77 C14.2086813 65.82820619 15.33226957 52.21259619 12 40 C8.03879819 27.04121122 -0.82396616 17.43303356 -12 10 C-32.38823133 -0.08808474 -56.7758917 4.1384603 -72.375 20.9375 Z " fill="#1F2F3F" transform="translate(381,283)"/>
</svg>
